<svg width="230" height="230" viewBox="0 0 230 230" fill="none" xmlns="http://www.w3.org/2000/svg">
<g clip-path="url(#clip0_52_125)">
<path d="M100.511 70.0343H104.623C107.979 70.0343 110.711 67.3015 110.711 63.9463V50.7872C110.711 47.4321 107.979 44.6992 104.623 44.6992H49.8855C46.5304 44.6992 43.7975 47.4321 43.7975 50.7872V63.9463C43.7975 67.3015 46.5304 70.0343 49.8855 70.0343H53.2046C52.7897 74.2102 50.6251 76.4019 47.9644 79.0987C44.2485 82.8507 40.0455 87.0987 40.0455 97.5611V180.403C40.0455 184.922 43.7254 188.601 48.244 188.601H105.498C110.017 188.601 113.697 184.922 113.697 180.403V97.5611C113.697 87.1077 109.485 82.8507 105.778 79.0987C103.108 76.4019 100.953 74.2102 100.538 70.0343H100.511ZM46.837 63.9463V50.7872C46.837 49.1096 48.1989 47.7387 49.8855 47.7387H104.623C106.301 47.7387 107.672 49.1006 107.672 50.7872V63.9463C107.672 65.6239 106.31 66.9948 104.623 66.9948H49.8855C48.208 66.9948 46.837 65.6329 46.837 63.9463ZM110.63 180.394C110.63 183.235 108.321 185.544 105.48 185.544H48.226C45.3849 185.544 43.076 183.235 43.076 180.394V97.5521C43.076 88.3434 46.6566 84.7357 50.12 81.2362C52.916 78.4132 55.8022 75.4819 56.2531 70.0343H97.4531C97.9131 75.491 100.79 78.4132 103.586 81.2362C107.05 84.7357 110.63 88.3524 110.63 97.5521V180.394Z" fill="#4D4D4D"/>
<path d="M96.5241 100.231H57.9758C57.137 100.231 56.4515 100.916 56.4515 101.755V166.252C56.4515 167.091 57.137 167.776 57.9758 167.776H96.5241C97.3629 167.776 98.0483 167.091 98.0483 166.252V101.755C98.0483 100.916 97.3629 100.231 96.5241 100.231ZM94.9998 164.728H59.5V103.279H94.9998V164.728Z" fill="#4D4D4D"/>
<path d="M189.81 123.879C187.952 123.879 186.437 125.395 186.437 127.253C186.437 127.316 186.455 127.37 186.455 127.433L171.032 136.335L153.778 126.378V107.555L171.79 97.1554C172.259 96.8849 172.547 96.3798 172.547 95.8386V75.0402L187.961 66.1382C188.493 66.49 189.125 66.6884 189.801 66.6884C191.659 66.6884 193.174 65.1732 193.174 63.3152C193.174 61.4572 191.659 59.942 189.801 59.942C187.943 59.942 186.428 61.4572 186.428 63.3152C186.428 63.3783 186.446 63.4324 186.446 63.4956L171.023 72.3976L153.769 62.4403V55.0536C153.769 54.2148 153.084 53.5293 152.245 53.5293C151.406 53.5293 150.721 54.2148 150.721 55.0536V62.4403L132.709 72.8395C132.24 73.1101 131.952 73.6152 131.952 74.1563V95.8386C131.952 96.3798 132.24 96.8849 132.709 97.1554L150.721 107.555V126.378L132.709 136.777C132.24 137.048 131.952 137.553 131.952 138.094V158.892L124.619 163.122C123.889 163.546 123.645 164.475 124.06 165.206C124.34 165.693 124.854 165.963 125.377 165.963C125.638 165.963 125.9 165.9 126.134 165.756L133.467 161.526L151.478 171.925C151.713 172.06 151.975 172.132 152.236 172.132C152.498 172.132 152.759 172.06 152.994 171.925L171.772 161.084C172.241 160.813 172.529 160.308 172.529 159.767V138.969L187.943 130.067C188.475 130.418 189.107 130.617 189.783 130.617C191.641 130.617 193.156 129.102 193.156 127.244C193.156 125.386 191.641 123.87 189.783 123.87L189.81 123.879ZM135 75.0312L152.254 65.0739L169.508 75.0312V94.9547L152.254 104.912L135 94.9547V75.0312ZM169.508 158.901L152.254 168.859L135 158.901V138.978L152.254 129.02L169.508 138.978V158.901Z" fill="#4D4D4D"/>
<path d="M115.005 230C51.5901 230 0 178.41 0 115.005C0 51.5992 51.5901 0 115.005 0C178.419 0 230 51.5901 230 115.005C230 178.419 178.41 230.009 115.005 230.009V230ZM115.005 3.15674C53.3309 3.15674 3.15674 53.3309 3.15674 115.005C3.15674 176.678 53.3309 226.852 115.005 226.852C176.678 226.852 226.843 176.678 226.843 115.005C226.843 53.3309 176.669 3.15674 115.005 3.15674Z" fill="#4D4D4D"/>
<path d="M139.591 77.6828V92.303L152.254 99.6176L164.926 92.303V77.6828L152.254 70.3682L139.591 77.6828Z" fill="#528BDD"/>
<path d="M139.591 141.621V156.25L152.254 163.564L164.926 156.25V141.621L152.254 134.315L139.591 141.621Z" fill="#528BDD"/>
</g>
<defs>
<clipPath id="clip0_52_125">
<rect width="230" height="230" fill="white"/>
</clipPath>
</defs>
</svg>
