<svg width="230" height="230" viewBox="0 0 230 230" fill="none" xmlns="http://www.w3.org/2000/svg">
<g clip-path="url(#clip0_52_145)">
<path d="M71.3513 162.437H62.3772C61.5384 162.437 60.8529 163.122 60.8529 163.961C60.8529 164.8 61.5384 165.485 62.3772 165.485H71.3513C72.1901 165.485 72.8756 164.8 72.8756 163.961C72.8756 163.122 72.1901 162.437 71.3513 162.437Z" fill="#4D4D4D"/>
<path d="M119.487 162.437H110.513C109.674 162.437 108.989 163.122 108.989 163.961C108.989 164.8 109.674 165.485 110.513 165.485H119.487C120.326 165.485 121.011 164.8 121.011 163.961C121.011 163.122 120.326 162.437 119.487 162.437Z" fill="#4D4D4D"/>
<path d="M167.623 162.437H158.649C157.81 162.437 157.125 163.122 157.125 163.961C157.125 164.8 157.81 165.485 158.649 165.485H167.623C168.462 165.485 169.147 164.8 169.147 163.961C169.147 163.122 168.462 162.437 167.623 162.437Z" fill="#4D4D4D"/>
<path d="M188.06 109.809C182.658 106.157 175.93 103.965 168.913 103.18C167.199 100.925 165.485 99.0493 164.655 98.1654V82.1563C164.655 81.3175 163.97 80.632 163.131 80.632C162.292 80.632 161.607 81.3175 161.607 82.1563V98.1654C160.777 99.0493 159.064 100.925 157.35 103.18C150.703 103.92 144.308 105.931 139.059 109.25C133.81 105.931 127.415 103.92 120.768 103.18C119.135 101.025 117.503 99.2207 116.637 98.2917V71.3783C116.637 70.5395 115.951 69.854 115.113 69.854C114.274 69.854 113.588 70.5395 113.588 71.3783V98.0302C112.813 98.8509 111.018 100.808 109.214 103.171C102.567 103.911 96.1723 105.922 90.9231 109.241C85.6739 105.922 79.2792 103.911 72.632 103.171C70.9184 100.916 69.2047 99.0313 68.3749 98.1564V71.3783C68.3749 70.5395 67.6895 69.854 66.8507 69.854C66.0119 69.854 65.3264 70.5395 65.3264 71.3783V98.1564C64.4966 99.0403 62.783 100.916 61.0693 103.171C54.0523 103.956 47.324 106.147 41.9215 109.8C41.5066 110.08 41.254 110.558 41.254 111.063V177.499C41.254 178.338 41.9395 179.023 42.7783 179.023H187.195C188.033 179.023 188.719 178.338 188.719 177.499V111.063C188.719 110.558 188.466 110.089 188.051 109.8L188.06 109.809ZM163.14 101.007C166.423 104.623 170.671 110.26 170.671 113.119C170.671 117.268 167.289 120.65 163.14 120.65C158.991 120.65 155.609 117.277 155.609 113.119C155.609 110.26 159.857 104.623 163.14 101.007ZM115.004 101.007C118.287 104.623 122.536 110.269 122.536 113.119C122.536 117.268 119.162 120.65 115.004 120.65C110.847 120.65 107.473 117.277 107.473 113.119C107.473 110.26 111.721 104.623 115.004 101.007ZM66.8687 101.007C70.1517 104.623 74.3998 110.269 74.3998 113.119C74.3998 117.268 71.0266 120.65 66.8687 120.65C62.7108 120.65 59.3376 117.277 59.3376 113.119C59.3376 110.26 63.5857 104.623 66.8687 101.007ZM58.7784 106.535C57.3624 108.826 56.2981 111.189 56.2981 113.119C56.2981 118.955 61.0423 123.699 66.8777 123.699C72.7132 123.699 77.4573 118.955 77.4573 113.119C77.4573 111.189 76.393 108.826 74.977 106.535C80.5239 107.482 85.764 109.403 90.0933 112.335C90.6074 112.686 91.2838 112.686 91.7979 112.335C96.1272 109.412 101.376 107.482 106.923 106.535C105.507 108.826 104.443 111.189 104.443 113.119C104.443 118.955 109.187 123.699 115.023 123.699C120.858 123.699 125.602 118.955 125.602 113.119C125.602 111.189 124.538 108.826 123.122 106.535C128.669 107.482 133.918 109.412 138.247 112.335C138.761 112.686 139.438 112.686 139.952 112.335C144.281 109.412 149.53 107.482 155.068 106.535C153.652 108.826 152.588 111.189 152.588 113.119C152.588 118.955 157.332 123.699 163.167 123.699C169.003 123.699 173.747 118.955 173.747 113.119C173.747 111.189 172.683 108.826 171.267 106.535C176.525 107.437 181.521 109.214 185.715 111.893V143.46C180.322 143.695 177.364 145.183 174.504 146.626C171.573 148.105 168.813 149.503 163.158 149.503C157.503 149.503 154.734 148.105 151.812 146.626C148.691 145.048 145.472 143.424 139.095 143.424C132.718 143.424 129.489 145.057 126.369 146.626C123.437 148.105 120.678 149.503 115.023 149.503C109.367 149.503 106.599 148.105 103.676 146.626C100.556 145.048 97.3358 143.424 90.9591 143.424C84.5825 143.424 81.3536 145.057 78.242 146.626C75.3107 148.105 72.5508 149.503 66.8958 149.503C61.2407 149.503 58.4808 148.105 55.5495 146.626C52.6904 145.183 49.7411 143.695 44.3567 143.46V111.893C48.5506 109.214 53.5473 107.428 58.8055 106.535H58.7784ZM44.3296 175.984V146.509C48.9745 146.734 51.4999 148.006 54.1516 149.341C57.2722 150.919 60.4921 152.543 66.8687 152.543C73.2453 152.543 76.4742 150.91 79.5859 149.341C82.5171 147.862 85.277 146.464 90.9321 146.464C96.5872 146.464 99.3561 147.862 102.278 149.341C105.399 150.919 108.619 152.543 114.995 152.543C121.372 152.543 124.601 150.91 127.713 149.341C130.644 147.862 133.404 146.464 139.059 146.464C144.714 146.464 147.483 147.862 150.405 149.341C153.526 150.919 156.746 152.543 163.122 152.543C169.499 152.543 172.728 150.91 175.839 149.341C178.491 147.997 181.016 146.734 185.67 146.5V175.975H44.3206L44.3296 175.984Z" fill="#4D4D4D"/>
<path d="M122.436 59.5811C135.496 59.5811 146.121 70.2057 146.121 83.2656C146.121 84.1044 146.806 84.7899 147.645 84.7899C148.484 84.7899 149.169 84.1044 149.169 83.2656C149.169 70.2057 159.794 59.5811 172.854 59.5811C173.693 59.5811 174.378 58.8956 174.378 58.0568C174.378 57.218 173.693 56.5325 172.854 56.5325C159.794 56.5325 149.169 45.9079 149.169 32.848C149.169 32.0092 148.484 31.3237 147.645 31.3237C146.806 31.3237 146.121 32.0092 146.121 32.848C146.121 45.9079 135.496 56.5325 122.436 56.5325C121.598 56.5325 120.912 57.218 120.912 58.0568C120.912 58.8956 121.598 59.5811 122.436 59.5811ZM147.645 41.75C150.333 49.3442 156.367 55.3781 163.961 58.0658C156.367 60.7536 150.333 66.7874 147.645 74.3816C144.957 66.7874 138.924 60.7536 131.329 58.0658C138.924 55.3781 144.957 49.3442 147.645 41.75Z" fill="#4D4D4D"/>
<path d="M69.4663 50.9857C77.782 50.9857 84.5555 57.7501 84.5555 66.0749C84.5555 66.9137 85.2409 67.5992 86.0797 67.5992C86.9185 67.5992 87.604 66.9137 87.604 66.0749C87.604 57.7592 94.3684 50.9857 102.693 50.9857C103.532 50.9857 104.217 50.3002 104.217 49.4615C104.217 48.6227 103.532 47.9372 102.693 47.9372C94.3774 47.9372 87.604 41.1728 87.604 32.848C87.604 32.0092 86.9185 31.3237 86.0797 31.3237C85.2409 31.3237 84.5555 32.0092 84.5555 32.848C84.5555 41.1637 77.791 47.9372 69.4663 47.9372C68.6275 47.9372 67.942 48.6227 67.942 49.4615C67.942 50.3002 68.6275 50.9857 69.4663 50.9857ZM86.0797 40.1265C87.9106 44.2844 91.2568 47.6396 95.4147 49.4615C91.2568 51.2924 87.9016 54.6385 86.0797 58.7964C84.2488 54.6385 80.9027 51.2833 76.7448 49.4615C80.9027 47.6305 84.2488 44.2844 86.0797 40.1265Z" fill="#4D4D4D"/>
<path d="M115.005 230C51.5901 230 0 178.41 0 115.005C0 51.5992 51.5901 0 115.005 0C178.419 0 230 51.5901 230 115.005C230 178.419 178.41 230.009 115.005 230.009V230ZM115.005 3.15674C53.3309 3.15674 3.15674 53.3309 3.15674 115.005C3.15674 176.678 53.3309 226.852 115.005 226.852C176.678 226.852 226.843 176.678 226.843 115.005C226.843 53.3309 176.669 3.15674 115.005 3.15674Z" fill="#4D4D4D"/>
<path d="M72.3615 113.598C72.3615 116.637 69.8993 119.099 66.8598 119.099C63.8203 119.099 61.358 116.637 61.358 113.598C61.358 110.558 64.2442 106.075 66.8598 103.424C69.2409 106.581 72.3615 110.558 72.3615 113.598Z" fill="#528BDD"/>
<path d="M120.506 113.553C120.506 116.592 118.044 119.054 115.005 119.054C111.965 119.054 109.503 116.592 109.503 113.553C109.503 110.513 112.389 106.031 115.005 103.379C117.386 106.536 120.506 110.513 120.506 113.553Z" fill="#528BDD"/>
<path d="M168.642 113.553C168.642 116.592 166.18 119.054 163.14 119.054C160.101 119.054 157.638 116.592 157.638 113.553C157.638 110.513 160.525 106.031 163.14 103.379C165.521 106.536 168.642 110.513 168.642 113.553Z" fill="#528BDD"/>
</g>
<defs>
<clipPath id="clip0_52_145">
<rect width="230" height="230" fill="white"/>
</clipPath>
</defs>
</svg>
