<svg width="230" height="230" viewBox="0 0 230 230" fill="none" xmlns="http://www.w3.org/2000/svg">
<g clip-path="url(#clip0_52_133)">
<path d="M110.36 129.002C118.36 129.002 124.863 122.49 124.863 114.499C124.863 110.495 123.23 105.633 120.596 101.827C120.353 101.476 120.073 101.124 119.74 100.718C118.116 98.7066 115.663 95.6761 115.663 89.3627V89.3356C115.104 61.9982 120.542 37.4388 120.596 37.1953C120.768 36.4467 120.353 35.6891 119.631 35.4275C118.91 35.166 118.107 35.4816 117.755 36.1581C106.716 57.5247 105.246 74.6342 105.3 89.9309C105.318 95.8114 103 98.445 101.304 100.366C100.871 100.853 100.465 101.322 100.132 101.791C97.4891 105.606 95.8386 110.477 95.8386 114.499C95.8386 122.499 102.351 129.002 110.342 129.002H110.36ZM102.648 103.523C102.874 103.198 103.207 102.819 103.595 102.377C105.381 100.348 108.384 96.9479 108.357 89.9128C108.312 77.7098 109.259 64.3342 115.492 48.4874C113.985 58.4086 112.299 73.4166 112.623 89.3717C112.623 96.7584 115.6 100.429 117.377 102.63C117.656 102.982 117.909 103.279 118.098 103.559C120.362 106.833 121.823 111.126 121.823 114.499C121.823 120.822 116.682 125.963 110.36 125.963C104.037 125.963 98.8961 120.822 98.8961 114.499C98.8961 111.117 100.366 106.815 102.639 103.532L102.648 103.523Z" fill="#4D4D4D"/>
<path d="M182.685 113.588C169.111 113.588 156.313 116.502 146.518 121.805C144.326 120.623 141.963 119.541 139.492 118.603C134.342 116.565 131.528 117.782 130.058 119.162C127.352 121.715 127.568 126.197 128.678 129.543C129.345 131.564 129.426 133.674 129.426 135.289C129.426 145.805 120.867 154.364 110.351 154.364C99.8342 154.364 91.2749 145.805 91.2749 135.289C91.2749 133.674 91.3561 131.564 92.0325 129.543C93.1329 126.197 93.3493 121.715 90.6526 119.162C89.1915 117.782 86.3684 116.565 81.2455 118.594C78.7562 119.541 76.3841 120.614 74.1924 121.805C64.3975 116.502 51.5992 113.588 38.0252 113.588C37.1864 113.588 36.501 114.274 36.501 115.113V181.503C36.501 182.342 37.1864 183.028 38.0252 183.028H182.676C183.515 183.028 184.2 182.342 184.2 181.503V115.113C184.2 114.274 183.515 113.588 182.676 113.588H182.685ZM181.161 179.979H39.5585V116.646C52.3929 116.862 64.3795 119.758 73.4529 124.871C73.9128 125.133 74.4811 125.133 74.9501 124.871C77.2139 123.6 79.6942 122.445 82.3549 121.435C84.3752 120.641 87.09 119.974 88.5691 121.381C89.922 122.653 90.1565 125.557 89.1554 128.587C88.3527 131.023 88.2444 133.449 88.2444 135.289C88.2444 147.483 98.1656 157.404 110.36 157.404C122.554 157.404 132.475 147.483 132.475 135.289C132.475 133.449 132.376 131.023 131.573 128.587C130.572 125.557 130.806 122.653 132.159 121.381C133.647 119.983 136.362 120.641 138.401 121.444C141.034 122.445 143.523 123.6 145.787 124.871C146.247 125.133 146.815 125.133 147.284 124.871C156.358 119.758 168.344 116.853 181.179 116.646V179.979H181.161Z" fill="#4D4D4D"/>
<path d="M72.7583 90.8146L84.4022 99.2386C84.6728 99.437 84.9794 99.5272 85.2951 99.5272C85.7641 99.5272 86.2331 99.3108 86.5307 98.8959C87.0268 98.2104 86.8735 97.2634 86.188 96.7673L74.5442 88.3433C73.8587 87.8563 72.9117 88.0006 72.4156 88.6861C71.9196 89.3715 72.0729 90.3186 72.7583 90.8146Z" fill="#4D4D4D"/>
<path d="M70.8553 107.022L81.6784 108.7C81.7596 108.709 81.8317 108.718 81.9129 108.718C82.6525 108.718 83.3019 108.177 83.4191 107.428C83.5454 106.598 82.9772 105.823 82.1474 105.687L71.3243 104.01C70.5036 103.883 69.7189 104.452 69.5836 105.281C69.4573 106.111 70.0255 106.887 70.8553 107.022Z" fill="#4D4D4D"/>
<path d="M91.6086 92.6096C91.8792 93.1327 92.4114 93.4394 92.9615 93.4394C93.196 93.4394 93.4305 93.3852 93.656 93.268C94.4046 92.8892 94.7022 91.9692 94.3144 91.2206L89.3268 81.4708C88.948 80.7222 88.028 80.4246 87.2794 80.8124C86.5308 81.1912 86.2332 82.1112 86.621 82.8598L91.6086 92.6096Z" fill="#4D4D4D"/>
<path d="M134.189 98.8959C134.486 99.3108 134.955 99.5272 135.424 99.5272C135.731 99.5272 136.047 99.437 136.317 99.2386L147.961 90.8146C148.646 90.3186 148.791 89.3715 148.304 88.6861C147.808 88.0006 146.861 87.8563 146.175 88.3433L134.531 96.7673C133.846 97.2634 133.702 98.2104 134.189 98.8959Z" fill="#4D4D4D"/>
<path d="M137.291 107.428C137.408 108.177 138.058 108.718 138.797 108.718C138.879 108.718 138.951 108.718 139.032 108.7L149.855 107.022C150.685 106.896 151.253 106.111 151.127 105.281C151 104.452 150.216 103.883 149.386 104.01L138.563 105.687C137.733 105.814 137.165 106.598 137.291 107.428Z" fill="#4D4D4D"/>
<path d="M127.054 93.2771C127.28 93.3943 127.514 93.4484 127.749 93.4484C128.299 93.4484 128.84 93.1418 129.102 92.6186L134.089 82.8688C134.468 82.1202 134.179 81.2003 133.431 80.8215C132.682 80.4336 131.762 80.7403 131.383 81.4799L126.396 91.2297C126.017 91.9783 126.306 92.8982 127.054 93.2771Z" fill="#4D4D4D"/>
<path d="M114.995 230C51.5901 230 0 178.41 0 115.005C0 51.5992 51.5901 0 114.995 0C178.401 0 230 51.5901 230 115.005C230 178.419 178.41 230.009 114.995 230.009V230ZM114.995 3.15674C53.3308 3.15674 3.15674 53.3309 3.15674 115.005C3.15674 176.678 53.3308 226.852 114.995 226.852C176.66 226.852 226.843 176.678 226.843 115.005C226.843 53.3309 176.669 3.15674 114.995 3.15674Z" fill="#4D4D4D"/>
<path d="M110.36 123.942C115.744 123.942 120.109 119.577 120.109 114.193C120.109 108.808 115.744 104.443 110.36 104.443C104.975 104.443 100.61 108.808 100.61 114.193C100.61 119.577 104.975 123.942 110.36 123.942Z" fill="#528BDD"/>
</g>
<defs>
<clipPath id="clip0_52_133">
<rect width="230" height="230" fill="white"/>
</clipPath>
</defs>
</svg>
